<svg xmlns="http://www.w3.org/2000/svg" viewBox="0 0 40.7 40.7"><path d="M32.86,0a7.93,7.93,0,0,0-7.07,4.35L20.86.16a.61.61,0,0,0-.8,0l-6.9,5.89H7.51a.62.62,0,0,0-.61.62V11.4L.33,17a.9.9,0,0,0-.14.2l0,0a.6.6,0,0,0-.05.24V40.08a.45.45,0,0,0,0,.2v0a.09.09,0,0,1,0,.06.53.53,0,0,0,.1.12s0,0,0,0a.34.34,0,0,0,.13.09s0,0,0,0a.93.93,0,0,0,.22,0H40.18a.72.72,0,0,0,.22,0l.07,0a.23.23,0,0,0,.11-.09s0,0,.06,0,.06-.09.09-.12l0-.06v0a1.23,1.23,0,0,0,0-.2h0V17.49a.6.6,0,0,0,0-.24s0,0,0,0a.7.7,0,0,0-.15-.2L37.5,14.38A7.92,7.92,0,0,0,32.86,0ZM20.46,1.44l4.83,4.14c-.05.14-.08.31-.13.47H15.05ZM8.14,7.3H25c0,.2,0,.42,0,.64a7.93,7.93,0,0,0,7.86,7.94V23L27,28l-6.11-5.23a.66.66,0,0,0-.8,0L14,28,8.14,23ZM6.9,13v8.91L1.69,17.49Zm-5.55,5.8L13,28.78,1.35,38.73ZM2.41,39.46,20.46,24,38.52,39.46Zm37.16-.73L27.91,28.78l11.66-10Zm-.33-21.24L34,21.93V15.79a7.31,7.31,0,0,0,2.36-.74Zm-6.38-2.84a6.71,6.71,0,1,1,6.71-6.71A6.71,6.71,0,0,1,32.86,14.65Z" fill="#1b181c"/><path d="M35.61,4.52l-3.16,6.11L30.05,7.7a.62.62,0,0,0-.87-.07.6.6,0,0,0-.09.86l3,3.64a.64.64,0,0,0,.48.22h.06a.64.64,0,0,0,.49-.33L36.7,5.08a.61.61,0,0,0-1.09-.56Z" fill="#1b181c"/><path d="M25.39,16.48a.62.62,0,1,0,0-1.23H11.83a.62.62,0,0,0,0,1.23Z" fill="#1b181c"/><path d="M22.31,12.48a.62.62,0,1,0,0-1.23H11.83a.62.62,0,0,0,0,1.23Z" fill="#1b181c"/><path d="M29.71,19.88a.62.62,0,0,0-.62-.62H11.83a.62.62,0,0,0,0,1.23H29.09A.62.62,0,0,0,29.71,19.88Z" fill="#1b181c"/></svg>